<?xml version="1.0" standalone="no"?>
<!DOCTYPE svg PUBLIC "-//W3C//DTD SVG 20010904//EN"
 "http://www.w3.org/TR/2001/REC-SVG-20010904/DTD/svg10.dtd">
<svg version="1.0" xmlns="http://www.w3.org/2000/svg"
 width="260.000000pt" height="260.000000pt" viewBox="0 0 260.000000 260.000000"
 preserveAspectRatio="xMidYMid meet">
<metadata>
Created by potrace 1.11, written by Peter Selinger 2001-2013
</metadata>
<g transform="translate(0.000000,260.000000) scale(0.100000,-0.100000)"
fill="#000000" stroke="none">
<path d="M747 2414 c-1 -1 -38 -4 -82 -7 -198 -13 -358 -94 -444 -224 -91
-137 -96 -353 -13 -483 83 -130 203 -197 509 -284 191 -55 248 -90 260 -159
12 -75 -20 -120 -109 -152 -128 -46 -407 -1 -601 96 -40 21 -62 27 -67 20 -3
-7 -17 -58 -30 -114 -12 -56 -28 -126 -36 -155 -12 -50 -11 -53 10 -67 67 -44
236 -96 386 -119 94 -15 315 -15 390 -1 117 21 234 76 313 146 27 23 47 35 48
27 0 -7 1 -43 1 -80 l1 -68 201 0 202 0 -1 295 c0 193 3 296 10 298 5 2 137 3
293 2 l282 0 0 166 0 166 -267 1 c-148 0 -279 1 -293 1 l-25 1 0 154 c0 85 3
158 7 162 5 4 170 7 368 7 l360 0 0 167 0 168 -567 -2 -568 -1 -2 -29 c-3 -36
-9 -42 -26 -27 -18 14 -158 56 -235 71 -76 14 -267 30 -275 24z m153 -349
c101 -18 265 -72 344 -112 l39 -20 1 -187 c1 -102 -1 -186 -4 -186 -3 0 -30
18 -60 41 -93 69 -149 92 -439 180 -177 53 -236 103 -224 186 7 43 46 80 102
97 46 13 170 14 241 1z"/>
<path d="M160 405 l0 -215 1125 0 1125 0 0 215 0 215 -1125 0 -1125 0 0 -215z"/>
</g>
</svg>
