<svg version="1" xmlns="http://www.w3.org/2000/svg" width="346.667" height="346.667" viewBox="0 0 260.000000 260.000000"><path d="M74.7 18.6c-.1.1-3.8.4-8.2.7-19.8 1.3-35.8 9.4-44.4 22.4C13 55.4 12.5 77 20.8 90c8.3 13 20.3 19.7 50.9 28.4 19.1 5.5 24.8 9 26 15.9 1.2 7.5-2 12-10.9 15.2-12.8 4.6-40.7.1-60.1-9.6-4-2.1-6.2-2.7-6.7-2-.3.7-1.7 5.8-3 11.4-1.2 5.6-2.8 12.6-3.6 15.5-1.2 5-1.1 5.3 1 6.7 6.7 4.4 23.6 9.6 38.6 11.9 9.4 1.5 31.5 1.5 39 .1 11.7-2.1 23.4-7.6 31.3-14.6 2.7-2.3 4.7-3.5 4.8-2.7 0 .7.1 4.3.1 8l.1 6.8h40.3l-.1-29.5c0-19.3.3-29.6 1-29.8.5-.2 13.7-.3 29.3-.2H227V88.3l-26.7-.1c-14.8 0-27.9-.1-29.3-.1l-2.5-.1V72.6c0-8.5.3-15.8.7-16.2.5-.4 17-.7 36.8-.7h36V22.2l-56.7.2-56.8.1-.2 2.9c-.3 3.6-.9 4.2-2.6 2.7-1.8-1.4-15.8-5.6-23.5-7.1-7.6-1.4-26.7-3-27.5-2.4zM90 53.5c10.1 1.8 26.5 7.2 34.4 11.2l3.9 2 .1 18.7c.1 10.2-.1 18.6-.4 18.6-.3 0-3-1.8-6-4.1-9.3-6.9-14.9-9.2-43.9-18-17.7-5.3-23.6-10.3-22.4-18.6.7-4.3 4.6-8 10.2-9.7 4.6-1.3 17-1.4 24.1-.1zM16 219.5V241h225v-43H16v21.5z"/></svg>